<?xml version="1.0" encoding="UTF-8" standalone="no"?>
<!-- Created with Inkscape (http://www.inkscape.org/) -->

<svg
   xmlns:osb="http://www.openswatchbook.org/uri/2009/osb"
   xmlns:dc="http://purl.org/dc/elements/1.1/"
   xmlns:cc="http://creativecommons.org/ns#"
   xmlns:rdf="http://www.w3.org/1999/02/22-rdf-syntax-ns#"
   xmlns:svg="http://www.w3.org/2000/svg"
   xmlns="http://www.w3.org/2000/svg"
   xmlns:sodipodi="http://sodipodi.sourceforge.net/DTD/sodipodi-0.dtd"
   xmlns:inkscape="http://www.inkscape.org/namespaces/inkscape"
   width="370.53284mm"
   height="152.21686mm"
   viewBox="0 0 333.36839 136.9495"
   version="1.1"
   id="svg8"
   inkscape:version="0.92.3 (2405546, 2018-03-11)"
   sodipodi:docname="bleBird.svg">
  <defs
     id="defs2">
    <inkscape:path-effect
       effect="bspline"
       id="path-effect1156"
       is_visible="true"
       weight="33.333333"
       steps="2"
       helper_size="0"
       apply_no_weight="true"
       apply_with_weight="true"
       only_selected="false" />
    <linearGradient
       id="linearGradient1139"
       osb:paint="solid">
      <stop
         style="stop-color:#000000;stop-opacity:1;"
         offset="0"
         id="stop1137" />
    </linearGradient>
    <inkscape:path-effect
       effect="bspline"
       id="path-effect867"
       is_visible="true"
       weight="33.333333"
       steps="2"
       helper_size="0"
       apply_no_weight="true"
       apply_with_weight="true"
       only_selected="false" />
    <inkscape:path-effect
       effect="bspline"
       id="path-effect839"
       is_visible="true"
       weight="33.333333"
       steps="2"
       helper_size="0"
       apply_no_weight="true"
       apply_with_weight="true"
       only_selected="false" />
    <inkscape:path-effect
       effect="bspline"
       id="path-effect817"
       is_visible="true"
       weight="33.333333"
       steps="2"
       helper_size="0"
       apply_no_weight="true"
       apply_with_weight="true"
       only_selected="false" />
    <inkscape:path-effect
       effect="bspline"
       id="path-effect817-1"
       is_visible="true"
       weight="33.333333"
       steps="2"
       helper_size="0"
       apply_no_weight="true"
       apply_with_weight="true"
       only_selected="false" />
    <inkscape:path-effect
       effect="bspline"
       id="path-effect839-7"
       is_visible="true"
       weight="33.333333"
       steps="2"
       helper_size="0"
       apply_no_weight="true"
       apply_with_weight="true"
       only_selected="false" />
    <inkscape:path-effect
       effect="bspline"
       id="path-effect817-9"
       is_visible="true"
       weight="33.333333"
       steps="2"
       helper_size="0"
       apply_no_weight="true"
       apply_with_weight="true"
       only_selected="false" />
    <inkscape:path-effect
       effect="bspline"
       id="path-effect867-6"
       is_visible="true"
       weight="33.333333"
       steps="2"
       helper_size="0"
       apply_no_weight="true"
       apply_with_weight="true"
       only_selected="false" />
    <inkscape:path-effect
       effect="bspline"
       id="path-effect867-8"
       is_visible="true"
       weight="33.333333"
       steps="2"
       helper_size="0"
       apply_no_weight="true"
       apply_with_weight="true"
       only_selected="false" />
    <inkscape:path-effect
       effect="bspline"
       id="path-effect867-4"
       is_visible="true"
       weight="33.333333"
       steps="2"
       helper_size="0"
       apply_no_weight="true"
       apply_with_weight="true"
       only_selected="false" />
    <inkscape:path-effect
       effect="bspline"
       id="path-effect867-1"
       is_visible="true"
       weight="33.333333"
       steps="2"
       helper_size="0"
       apply_no_weight="true"
       apply_with_weight="true"
       only_selected="false" />
    <inkscape:path-effect
       effect="bspline"
       id="path-effect817-0"
       is_visible="true"
       weight="33.333333"
       steps="2"
       helper_size="0"
       apply_no_weight="true"
       apply_with_weight="true"
       only_selected="false" />
    <inkscape:path-effect
       effect="bspline"
       id="path-effect839-3"
       is_visible="true"
       weight="33.333333"
       steps="2"
       helper_size="0"
       apply_no_weight="true"
       apply_with_weight="true"
       only_selected="false" />
    <inkscape:path-effect
       effect="bspline"
       id="path-effect867-49"
       is_visible="true"
       weight="33.333333"
       steps="2"
       helper_size="0"
       apply_no_weight="true"
       apply_with_weight="true"
       only_selected="false" />
    <inkscape:path-effect
       effect="bspline"
       id="path-effect817-94"
       is_visible="true"
       weight="33.333333"
       steps="2"
       helper_size="0"
       apply_no_weight="true"
       apply_with_weight="true"
       only_selected="false" />
    <inkscape:path-effect
       effect="bspline"
       id="path-effect839-4"
       is_visible="true"
       weight="33.333333"
       steps="2"
       helper_size="0"
       apply_no_weight="true"
       apply_with_weight="true"
       only_selected="false" />
    <inkscape:path-effect
       effect="bspline"
       id="path-effect867-9"
       is_visible="true"
       weight="33.333333"
       steps="2"
       helper_size="0"
       apply_no_weight="true"
       apply_with_weight="true"
       only_selected="false" />
    <inkscape:path-effect
       effect="bspline"
       id="path-effect817-8"
       is_visible="true"
       weight="33.333333"
       steps="2"
       helper_size="0"
       apply_no_weight="true"
       apply_with_weight="true"
       only_selected="false" />
    <inkscape:path-effect
       effect="bspline"
       id="path-effect839-0"
       is_visible="true"
       weight="33.333333"
       steps="2"
       helper_size="0"
       apply_no_weight="true"
       apply_with_weight="true"
       only_selected="false" />
    <inkscape:path-effect
       effect="bspline"
       id="path-effect867-68"
       is_visible="true"
       weight="33.333333"
       steps="2"
       helper_size="0"
       apply_no_weight="true"
       apply_with_weight="true"
       only_selected="false" />
    <inkscape:path-effect
       effect="bspline"
       id="path-effect817-2"
       is_visible="true"
       weight="33.333333"
       steps="2"
       helper_size="0"
       apply_no_weight="true"
       apply_with_weight="true"
       only_selected="false" />
    <inkscape:path-effect
       effect="bspline"
       id="path-effect839-6"
       is_visible="true"
       weight="33.333333"
       steps="2"
       helper_size="0"
       apply_no_weight="true"
       apply_with_weight="true"
       only_selected="false" />
    <inkscape:path-effect
       effect="bspline"
       id="path-effect867-0"
       is_visible="true"
       weight="33.333333"
       steps="2"
       helper_size="0"
       apply_no_weight="true"
       apply_with_weight="true"
       only_selected="false" />
  </defs>
  <sodipodi:namedview
     id="base"
     pagecolor="#ffffff"
     bordercolor="#666666"
     borderopacity="1.0"
     inkscape:pageopacity="0.0"
     inkscape:pageshadow="2"
     inkscape:zoom="0.12374369"
     inkscape:cx="297.15125"
     inkscape:cy="202.51034"
     inkscape:document-units="mm"
     inkscape:current-layer="layer2"
     showgrid="false"
     inkscape:window-width="1366"
     inkscape:window-height="705"
     inkscape:window-x="-8"
     inkscape:window-y="-8"
     inkscape:window-maximized="1"
     fit-margin-top="0"
     fit-margin-left="0"
     fit-margin-right="0"
     fit-margin-bottom="0"
     scale-x="0.8997"
     viewbox-width="333.27" />
  <metadata
     id="metadata5">
    <rdf:RDF>
      <cc:Work
         rdf:about="">
        <dc:format>image/svg+xml</dc:format>
        <dc:type
           rdf:resource="http://purl.org/dc/dcmitype/StillImage" />
        <dc:title></dc:title>
      </cc:Work>
    </rdf:RDF>
  </metadata>
  <g
     inkscape:label="Layer 1"
     inkscape:groupmode="layer"
     id="layer1"
     transform="translate(74.835261,-45.569329)">
    <g
       id="g863"
       transform="matrix(-1,0,0,1,90.402149,-21.544643)">
      <path
         inkscape:connector-curvature="0"
         id="path853"
         d="M -4.6269076,82.396754 C -7.7951877,80.538288 -23.015787,69.867776 -25.398966,67.834353 -26.195611,67.154624 -25.105925,67.122716 -0.80014823,67.114091 13.187664,67.10915 24.47569,67.258943 24.284352,67.44702 23.654958,68.06569 15.246618,74.625349 9.970476,78.613809 4.4867968,82.759156 1.4513452,84.557342 -0.04944438,84.549559 -0.5529661,84.546982 -2.6128237,83.578186 -4.6269076,82.396754 Z"
         style="opacity:1;fill:#b7bec8;fill-opacity:1;stroke:none;stroke-width:0.14572959;stroke-miterlimit:4;stroke-dasharray:none;stroke-dashoffset:0;stroke-opacity:1" />
      <path
         inkscape:connector-curvature="0"
         id="path859"
         d="m -25.732815,78.904981 0.133635,-11.455725 2.533053,1.439374 c 0,0 5.467995,3.530579 8.891813,5.759833 13.63103255,8.875189 14.5361455,9.049973 21.7807916,4.206005 C 11.370022,76.33806 20.661011,69.77971 23.041754,67.958971 l 1.228423,-0.566964 -0.110134,11.473847 V 90.627978 H -0.78638595 -25.732815 Z"
         style="opacity:1;fill:#dbdee3;fill-opacity:1;stroke:none;stroke-width:0.13113697;stroke-miterlimit:4;stroke-dasharray:none;stroke-dashoffset:0;stroke-opacity:1"
         sodipodi:nodetypes="ccsssccccccc" />
    </g>
  </g>
  <g
     inkscape:groupmode="layer"
     id="layer2"
     inkscape:label="Layer 2"
     transform="translate(74.835261,-45.569329)">
    <g
       id="g869">
      <path
         inkscape:connector-curvature="0"
         id="path1147"
         d="m 87.76419,181.98263 c -4.76904,-0.74498 -8.619132,-1.66404 -12.168277,-2.90472 -3.151923,-1.10181 -15.13033,-7.00448 -15.107359,-7.44454 0.0064,-0.12315 0.787061,-0.80826 1.734741,-1.52246 2.80771,-2.11599 7.869052,-7.23925 9.359265,-9.47377 1.673987,-2.51008 2.879426,-6.19495 2.879426,-8.80202 0,-2.92479 -1.410333,-7.52811 -3.636817,-11.87059 -2.462128,-4.80206 -9.08853,-14.97954 -9.562306,-14.68674 -0.189857,0.11734 -1.105906,1.53024 -2.035654,3.13977 -3.203856,5.54633 -6.789269,9.7434 -10.013887,11.72223 -2.343126,1.4379 -6.275943,2.46679 -8.670086,2.26825 -1.74059,-0.14434 -2.281867,-0.36715 -3.043735,-1.25287 -0.81811,-0.95111 -0.903568,-1.33193 -0.729549,-3.25106 0.108413,-1.19557 0.655204,-3.5493 1.215097,-5.23051 1.101418,-3.30725 1.051869,-4.16444 -0.240729,-4.16444 -0.458512,0 -3.823112,1.68281 -7.476894,3.73958 -3.65378,2.05676 -7.698926,4.26665 -8.989211,4.91086 -2.666109,1.33113 -7.61796,3.06682 -8.749477,3.06682 -1.127178,0 -1.944729,-1.02745 -1.944729,-2.44402 0,-1.58252 1.309019,-5.86722 2.529538,-8.27975 1.565574,-3.09457 0.719984,-2.97972 -4.6786085,0.63544 -5.524224,3.6993 -9.98818,5.94298 -12.354624,6.20972 -1.4349262,0.16173 -1.7246336,0.0604 -2.4445157,-0.85475 -0.6979103,-0.88725 -0.8166704,-1.52722 -0.8166704,-4.4009 0,-2.64895 -0.1210318,-3.40912 -0.5702376,-3.5815 -0.3426505,-0.13148 -1.8134844,0.68266 -3.6852678,2.03988 -4.738234,3.43569 -10.081214,6.89281 -12.186458,7.88514 -2.619122,1.23456 -2.619489,0.65415 -0.0026,-4.24612 1.174043,-2.19856 2.062037,-4.06996 1.973319,-4.15868 -0.08872,-0.0887 -2.595808,1.02763 -5.571313,2.48077 -9.5546,4.66615 -14.852468,6.07116 -15.851789,4.20391 -0.537541,-1.00432 -0.469032,-3.51957 0.175644,-6.45044 0.297225,-1.35127 0.546383,-2.66946 0.553685,-2.92932 0.02543,-0.90436 -1.340027,-0.46504 -1.993643,0.64145 -1.135288,1.92188 -4.528892,5.38942 -6.497542,6.63908 -1.659279,1.05329 -5.04004,2.45236 -5.925963,2.45236 -0.688218,0 -0.217601,-0.96216 1.605021,-3.2814 1.499586,-1.90819 1.822635,-2.54973 1.487352,-2.95373 -0.357357,-0.43059 -0.842063,-0.36035 -2.925794,0.42397 -3.739727,1.40762 -8.304781,2.40375 -11.029595,2.40672 -2.632866,0.003 -7.21454,-0.68069 -7.209203,-1.07558 0.0019,-0.13458 1.06163,-0.92504 2.355138,-1.75659 1.293509,-0.83155 6.18209,-4.22555 10.863511,-7.54222 4.681421,-3.31668 9.447165,-6.4054 10.590543,-6.86384 1.143379,-0.45843 3.524629,-1.11982 5.291667,-1.46976 12.377428,-2.45115 58.337147,-12.10251 62.942357,-13.21764 7.558541,-1.830268 10.445431,-2.377308 16.052349,-3.041808 10.430478,-1.23616 20.212724,-0.18696 36.966762,3.964888 8.32671,2.06345 9.068686,2.17125 9.379,1.36258 0.113641,-0.29615 -0.24743,-2.2947 -0.802383,-4.441218 -0.683025,-2.64188 -1.07169,-5.307083 -1.203029,-8.249493 -0.170407,-3.81771 -0.09557,-4.60675 0.614905,-6.48325 1.05799,-2.79435 2.901278,-5.16249 5.686475,-7.30565 2.730529,-2.1011 2.525266,-1.50061 5.525871,-16.16572 1.22289,-5.97674 2.31235,-10.86681 2.42103,-10.86681 0.10867,0 1.19813,4.89007 2.42103,10.86681 3.0006,14.66511 2.79533,14.06462 5.52586,16.16572 2.7852,2.14316 4.62849,4.5113 5.68648,7.30565 0.71047,1.8765 0.78531,2.66554 0.6149,6.48325 -0.13134,2.94241 -0.52,5.607613 -1.20303,8.249493 -0.55495,2.146518 -0.91602,4.145068 -0.80238,4.441218 0.31031,0.80867 1.05229,0.70087 9.379,-1.36258 22.914,-5.678358 32.58878,-5.848191 53.02843,-0.93087 4.35866,1.0486 50.01447,10.64432 63.87798,13.42557 4.19084,0.84076 6.05916,1.85512 14.77649,8.02256 4.77414,3.37767 9.73683,6.82157 11.02819,7.65312 1.29136,0.83155 2.34941,1.62201 2.35123,1.75659 0.005,0.39489 -4.57633,1.07846 -7.20919,1.07558 -2.72482,-0.003 -7.28987,-0.9991 -11.0296,-2.40672 -2.08373,-0.78432 -2.56844,-0.85456 -2.92579,-0.42397 -0.33529,0.404 -0.0122,1.04554 1.48735,2.95373 2.27706,2.89751 2.39914,3.44453 0.68724,3.07957 -3.63893,-0.77579 -8.27929,-4.21968 -10.90912,-8.0963 -1.54453,-2.27678 -2.84651,-2.63775 -2.44834,-0.67881 0.90945,4.47443 1.09919,6.3827 0.76796,7.7238 -0.34883,1.41234 -0.39577,1.44444 -2.27272,1.55402 -2.43226,0.142 -6.36371,-1.24602 -13.75957,-4.85792 -2.9755,-1.45314 -5.48259,-2.56948 -5.57131,-2.48077 -0.0887,0.0887 0.79928,1.96012 1.97332,4.15868 2.6168,4.90027 2.61643,5.48068 -0.003,4.24612 -2.10525,-0.99233 -7.44823,-4.44945 -12.18646,-7.88514 -1.87179,-1.35722 -3.34262,-2.17136 -3.68527,-2.03988 -0.44921,0.17238 -0.57024,0.93255 -0.57024,3.5815 0,2.87368 -0.11876,3.51365 -0.81667,4.4009 -0.71988,0.91518 -1.00959,1.01648 -2.44451,0.85475 -2.36645,-0.26674 -6.8304,-2.51042 -12.35463,-6.20972 -2.94513,-1.9722 -4.97966,-3.10726 -5.19092,-2.896 -0.21126,0.21126 0.1742,1.55395 0.98346,3.42576 2.36938,5.48036 2.64632,8.92377 0.75585,9.39825 -2.16878,0.54433 -7.92403,-1.896 -18.31026,-7.76385 -3.69267,-2.0862 -7.08904,-3.79309 -7.54755,-3.79309 -1.2926,0 -1.34215,0.85719 -0.24074,4.16444 0.5599,1.68121 1.10669,4.03494 1.2151,5.23051 0.17552,1.9356 0.0921,2.29578 -0.76172,3.28747 -0.91426,1.06194 -1.09648,1.11252 -3.92002,1.08806 -6.85874,-0.0594 -11.72521,-3.79117 -17.5182,-13.43345 -1.1461,-1.90764 -2.24082,-3.48675 -2.43274,-3.50913 -0.44978,-0.0525 -5.29728,7.18607 -8.05403,12.02668 -1.17519,2.06355 -2.73046,5.29524 -3.45615,7.18155 -1.16983,3.04079 -1.32038,3.83677 -1.3278,7.02042 -0.007,2.83364 0.16719,4.02911 0.82421,5.66964 1.26451,3.1574 4.4295,7.00206 8.86796,10.77232 2.20258,1.87099 4.01974,3.50382 4.03813,3.62852 0.0759,0.51446 -12.96354,6.83538 -16.61734,8.05533 -4.2537,1.42024 -11.62896,2.89515 -14.12588,2.8249 -0.84716,-0.0238 -2.95319,-0.26404 -4.68006,-0.53379 z"
         style="opacity:1;fill:#00aad4;fill-opacity:1;stroke:none;stroke-width:1.42857146;stroke-miterlimit:4;stroke-dasharray:none;stroke-dashoffset:0;stroke-opacity:1" />
    </g>
    <path
       style="opacity:1;fill:#d5e5ff;fill-opacity:1;stroke:#000000;stroke-width:0.53993249;stroke-miterlimit:4;stroke-dasharray:none;stroke-dashoffset:0;stroke-opacity:1"
       d=""
       id="path849"
       inkscape:connector-curvature="0"
       transform="matrix(0.26458333,0,0,0.26458333,-61.984071,49.693372)" />
  </g>
</svg>
